<svg xmlns="http://www.w3.org/2000/svg" width="846" height="496" viewBox="0 0 846 496">
  <g fill="#F5F5F5" fill-rule="evenodd" transform="translate(32 30)">
    <path d="M151.036481 333.482L149.243921 333.482C149.243921 330.512492 148.573981 328.484566 147.234081 327.39816 145.894181 326.311755 144.065426 325.804773 141.747761 325.8772L137.782401 325.98584C136.514928 326.022054 135.618657 326.311757 135.093561 326.85496 134.568465 327.398163 134.260655 328.05905 134.170121 328.83764 134.079588 329.616231 134.034321 330.892738 134.034321 332.6672L134.034321 342.01024 143.486001 342.06456 143.105761 337.33872 145.495841 337.33872 145.495841 348.80024 143.757601 348.80024C143.757601 347.424127 143.603696 346.392057 143.295881 345.704 142.988067 345.015943 142.508245 344.545175 141.856401 344.29168 141.204558 344.038186 140.299234 343.91144 139.140401 343.91144 138.343704 343.91144 137.728084 343.929547 137.293521 343.96576L134.034321 344.12872 134.034321 355.53592C134.034321 357.455236 133.980002 358.885649 133.871361 359.8272L139.412001 359.60992 139.412001 362 125.560401 362 125.560401 360.20744C126.827874 360.171226 127.733199 359.881523 128.276401 359.33832 128.819604 358.795117 129.127414 358.152337 129.199841 357.40996 129.272269 356.667583 129.308481 355.372969 129.308481 353.52608L129.308481 330.05984C129.308481 328.538873 129.362801 327.235206 129.471441 326.1488L125.560401 326.36608 125.560401 323.976 150.764881 323.976 151.036481 333.482zM183.981561 326.06732C186.896749 328.040957 189.078581 330.548705 190.527121 333.59064 191.975662 336.632575 192.699921 339.764997 192.699921 342.988 192.699921 346.174789 191.984715 349.298158 190.554281 352.3582 189.123847 355.418242 186.987282 357.935043 184.144521 359.90868 181.30176 361.882317 177.852475 362.86912 173.796561 362.86912 169.45094 362.86912 165.829642 361.909476 162.932561 359.99016 160.03548 358.070844 157.898915 355.599308 156.522801 352.57548 155.146688 349.551652 154.458641 346.355857 154.458641 342.988 154.458641 339.764997 155.173848 336.632575 156.604281 333.59064 158.034715 330.548705 160.17128 328.040957 163.014041 326.06732 165.856802 324.093684 169.306088 323.10688 173.362001 323.10688 177.526555 323.10688 181.066373 324.093684 183.981561 326.06732zM165.920161 327.69692C163.892204 329.308422 162.362206 331.399721 161.330121 333.97088 160.298036 336.54204 159.782001 339.2218 159.782001 342.01024 159.782001 344.871108 160.307089 347.740986 161.357281 350.61996 162.407473 353.498934 164.000844 355.888991 166.137441 357.7902 168.274039 359.69141 170.863266 360.642 173.905201 360.642 176.729855 360.642 179.147071 359.836261 181.156921 358.22476 183.166771 356.613259 184.687716 354.540066 185.719801 352.00512 186.751886 349.470174 187.267921 346.808521 187.267921 344.02008 187.267921 340.941931 186.70662 337.963415 185.584001 335.08444 184.461382 332.205466 182.831799 329.851623 180.695201 328.02284 178.558604 326.194058 176.059909 325.27968 173.199041 325.27968 170.374387 325.27968 167.948118 326.085419 165.920161 327.69692zM221.245081 326.50188C223.617066 328.149595 224.803041 330.530598 224.803041 333.64496 224.839254 336.143693 224.096889 338.388897 222.575921 340.38064 221.054953 342.372383 218.411406 343.748476 214.645201 344.50896 215.260831 344.979736 215.822132 345.541037 216.329121 346.19288 216.83611 346.844723 217.524157 347.858687 218.393281 349.2348L222.087041 355.04704C222.883738 356.314513 223.544625 357.28321 224.069721 357.95316 224.594817 358.62311 225.228544 359.166305 225.970921 359.58276 226.713298 359.999215 227.627675 360.20744 228.714081 360.20744L228.714081 362 221.869761 362C220.891996 361.167089 220.068151 360.307031 219.398201 359.4198 218.728251 358.532569 217.940619 357.382807 217.035281 355.97048L213.395841 350.15824 212.689681 349.01752C212.110265 348.039755 211.603283 347.24307 211.168721 346.62744 210.734159 346.01181 210.26339 345.468616 209.756401 344.99784 209.430479 345.034054 208.923498 345.05216 208.235441 345.05216 207.257676 345.05216 206.533417 345.034054 206.062641 344.99784L206.062641 355.53592C206.062641 357.455236 206.008322 358.885649 205.899681 359.8272L209.810721 359.60992 209.810721 362 197.588721 362 197.588721 360.20744C198.856194 360.171226 199.761518 359.881523 200.304721 359.33832 200.847924 358.795117 201.155734 358.152337 201.228161 357.40996 201.300588 356.667583 201.336801 355.372969 201.336801 353.52608L201.336801 330.05984C201.336801 328.538873 201.391121 327.235206 201.499761 326.1488L197.588721 326.36608 197.588721 323.976C201.354927 323.903573 204.197645 323.86736 206.116961 323.86736 207.85521 323.86736 209.158877 323.885467 210.028001 323.92168 215.134107 323.994107 218.873096 324.854165 221.245081 326.50188zM207.094721 326.74632C206.551518 327.253309 206.243708 327.86893 206.171281 328.5932 206.098854 329.31747 206.062641 330.603031 206.062641 332.44992L206.062641 342.87936C207.149046 342.951787 207.945732 342.988 208.452721 342.988 215.840278 342.988 219.534001 340.072856 219.534001 334.24248 219.534001 331.490253 218.737316 329.426114 217.143921 328.05 215.550526 326.673887 213.106151 325.98584 209.810721 325.98584 208.543248 325.98584 207.637924 326.239331 207.094721 326.74632zM262.229521 335.43752L260.165361 335.43752C260.129147 333.156069 259.902816 331.336367 259.486361 329.97836 259.069905 328.620353 258.363752 327.60639 257.367881 326.93644 256.372009 326.26649 254.95065 325.93152 253.103761 325.93152L248.486561 325.93152 248.432241 355.53592C248.432241 357.455236 248.377921 358.885649 248.269281 359.8272L252.777841 359.60992 252.777841 362 240.012641 362 240.012641 360.20744C241.569822 360.135013 242.574732 359.700457 243.027401 358.90376 243.48007 358.107063 243.706401 356.875822 243.706401 355.21L243.706401 353.52608 243.760721 325.98584 238.165761 326.04016C235.920523 326.04016 234.318099 326.791579 233.358441 328.29444 232.398783 329.797301 231.918961 332.178304 231.918961 335.43752L229.909121 335.43752 230.235041 323.976 261.903601 323.976 262.229521 335.43752zM290.122841 326.50188C292.494826 328.149595 293.680801 330.530598 293.680801 333.64496 293.717014 336.143693 292.974648 338.388897 291.453681 340.38064 289.932713 342.372383 287.289166 343.748476 283.522961 344.50896 284.13859 344.979736 284.699891 345.541037 285.206881 346.19288 285.71387 346.844723 286.401916 347.858687 287.271041 349.2348L290.964801 355.04704C291.761498 356.314513 292.422385 357.28321 292.947481 357.95316 293.472577 358.62311 294.106304 359.166305 294.848681 359.58276 295.591058 359.999215 296.505435 360.20744 297.591841 360.20744L297.591841 362 290.747521 362C289.769756 361.167089 288.945911 360.307031 288.275961 359.4198 287.606011 358.532569 286.818378 357.382807 285.913041 355.97048L282.273601 350.15824 281.567441 349.01752C280.988024 348.039755 280.481043 347.24307 280.046481 346.62744 279.611918 346.01181 279.14115 345.468616 278.634161 344.99784 278.308239 345.034054 277.801257 345.05216 277.113201 345.05216 276.135436 345.05216 275.411176 345.034054 274.940401 344.99784L274.940401 355.53592C274.940401 357.455236 274.886081 358.885649 274.777441 359.8272L278.688481 359.60992 278.688481 362 266.466481 362 266.466481 360.20744C267.733954 360.171226 268.639278 359.881523 269.182481 359.33832 269.725683 358.795117 270.033494 358.152337 270.105921 357.40996 270.178348 356.667583 270.214561 355.372969 270.214561 353.52608L270.214561 330.05984C270.214561 328.538873 270.26888 327.235206 270.377521 326.1488L266.466481 326.36608 266.466481 323.976C270.232686 323.903573 273.075404 323.86736 274.994721 323.86736 276.732969 323.86736 278.036636 323.885467 278.905761 323.92168 284.011866 323.994107 287.750855 324.854165 290.122841 326.50188zM275.972481 326.74632C275.429278 327.253309 275.121468 327.86893 275.049041 328.5932 274.976614 329.31747 274.940401 330.603031 274.940401 332.44992L274.940401 342.87936C276.026806 342.951787 276.823491 342.988 277.330481 342.988 284.718038 342.988 288.411761 340.072856 288.411761 334.24248 288.411761 331.490253 287.615075 329.426114 286.021681 328.05 284.428286 326.673887 281.98391 325.98584 278.688481 325.98584 277.421008 325.98584 276.515683 326.239331 275.972481 326.74632zM326.97896 333.482L325.1864 333.482C325.1864 330.512492 324.54362 328.484566 323.25804 327.39816 321.972461 326.311755 320.170865 325.804773 317.8532 325.8772L313.18168 325.98584C311.877994 326.022054 310.936457 326.266491 310.35704 326.71916 309.777624 327.171829 309.415495 327.805556 309.27064 328.62036 309.125786 329.435164 309.05336 330.711671 309.05336 332.44992L309.05336 341.14112 319.26552 341.19544 318.88528 336.52392 321.27536 336.52392 321.27536 347.93112 319.4828 347.93112C319.4828 346.59122 319.319842 345.568204 318.99392 344.86204 318.667999 344.155877 318.17007 343.685108 317.50012 343.44972 316.83017 343.214332 315.897686 343.09664 314.70264 343.09664L313.01872 343.15096 309.05336 343.31392 309.05336 355.7532C309.05336 357.636303 308.999041 359.048609 308.8904 359.99016L319.26552 359.8272C321.800466 359.790986 323.73786 359.148206 325.07776 357.89884 326.41766 356.649474 327.0876 354.485749 327.0876 351.4076L328.93448 351.4076 328.60856 362 300.579441 362 300.579441 360.20744C301.846914 360.171226 302.752238 359.881523 303.29544 359.33832 303.838643 358.795117 304.146453 358.152337 304.21888 357.40996 304.291308 356.667583 304.32752 355.372969 304.32752 353.52608L304.32752 330.05984C304.32752 328.538873 304.38184 327.235206 304.49048 326.1488L300.579441 326.36608 300.579441 323.976 326.70736 323.976 326.97896 333.482zM350.581 323.73156C352.228715 324.148016 353.740607 324.863222 355.11672 325.8772L354.89944 323.54144 357.66976 323.54144 357.66976 335.49184 355.71424 335.49184C355.533173 332.630973 354.618795 330.213757 352.97108 328.24012 351.323365 326.266484 349.014788 325.27968 346.04528 325.27968 343.872469 325.27968 342.17046 325.886247 340.9392 327.0994 339.707941 328.312553 339.09232 329.824444 339.09232 331.63512 339.09232 333.083661 339.508769 334.333008 340.34168 335.3832 341.174591 336.433392 342.188554 337.302503 343.3836 337.99056 344.578646 338.678617 346.262549 339.529622 348.43536 340.5436 350.897879 341.666219 352.880539 342.680182 354.3834 343.58552 355.886261 344.490858 357.162768 345.676833 358.21296 347.14348 359.263152 348.610127 359.78824 350.411723 359.78824 352.54832 359.78824 354.576277 359.290312 356.368819 358.29444 357.926 357.298569 359.483181 355.840996 360.696316 353.92168 361.56544 352.002364 362.434564 349.720947 362.86912 347.07736 362.86912 345.375325 362.86912 343.664262 362.633736 341.94412 362.16296 340.223978 361.692184 338.712087 361.004138 337.4084 360.0988L337.68 362.43456 334.85536 362.43456 334.52944 350.8644 336.64792 350.8644C336.828988 353.978762 337.897271 356.377872 339.8528 358.0618 341.80833 359.745728 344.288919 360.58768 347.29464 360.58768 349.503665 360.58768 351.359579 359.981113 352.86244 358.76796 354.365301 357.554807 355.11672 355.898064 355.11672 353.79768 355.11672 352.240499 354.691218 350.909672 353.8402 349.80516 352.989183 348.700648 351.939006 347.777217 350.68964 347.03484 349.440274 346.292463 347.747318 345.432405 345.61072 344.45464 343.184415 343.295808 341.256074 342.281844 339.82564 341.41272 338.395206 340.543596 337.173019 339.393834 336.15904 337.9634 335.145062 336.532966 334.63808 334.767584 334.63808 332.6672 334.63808 331.21866 334.97305 329.770141 335.643 328.3216 336.31295 326.87306 337.471765 325.641819 339.11948 324.62784 340.767195 323.613862 342.949027 323.10688 345.66504 323.10688 347.294648 323.10688 348.933285 323.315105 350.581 323.73156zM381.38044 323.73156C383.028155 324.148016 384.540046 324.863222 385.91616 325.8772L385.69888 323.54144 388.4692 323.54144 388.4692 335.49184 386.51368 335.49184C386.332612 332.630973 385.418235 330.213757 383.77052 328.24012 382.122805 326.266484 379.814228 325.27968 376.84472 325.27968 374.671909 325.27968 372.9699 325.886247 371.73864 327.0994 370.507381 328.312553 369.89176 329.824444 369.89176 331.63512 369.89176 333.083661 370.308209 334.333008 371.14112 335.3832 371.974031 336.433392 372.987994 337.302503 374.18304 337.99056 375.378086 338.678617 377.061989 339.529622 379.2348 340.5436 381.697319 341.666219 383.679979 342.680182 385.18284 343.58552 386.685701 344.490858 387.962208 345.676833 389.0124 347.14348 390.062592 348.610127 390.58768 350.411723 390.58768 352.54832 390.58768 354.576277 390.089752 356.368819 389.09388 357.926 388.098008 359.483181 386.640436 360.696316 384.72112 361.56544 382.801804 362.434564 380.520387 362.86912 377.8768 362.86912 376.174765 362.86912 374.463702 362.633736 372.74356 362.16296 371.023418 361.692184 369.511527 361.004138 368.20784 360.0988L368.47944 362.43456 365.6548 362.43456 365.32888 350.8644 367.44736 350.8644C367.628428 353.978762 368.69671 356.377872 370.65224 358.0618 372.60777 359.745728 375.088358 360.58768 378.09408 360.58768 380.303104 360.58768 382.159019 359.981113 383.66188 358.76796 385.164741 357.554807 385.91616 355.898064 385.91616 353.79768 385.91616 352.240499 385.490658 350.909672 384.63964 349.80516 383.788622 348.700648 382.738446 347.777217 381.48908 347.03484 380.239714 346.292463 378.546757 345.432405 376.41016 344.45464 373.983855 343.295808 372.055514 342.281844 370.62508 341.41272 369.194646 340.543596 367.972459 339.393834 366.95848 337.9634 365.944502 336.532966 365.43752 334.767584 365.43752 332.6672 365.43752 331.21866 365.77249 329.770141 366.44244 328.3216 367.11239 326.87306 368.271205 325.641819 369.91892 324.62784 371.566635 323.613862 373.748467 323.10688 376.46448 323.10688 378.094088 323.10688 379.732725 323.315105 381.38044 323.73156zM443.71264 325.76856C442.119245 325.840987 440.897057 326.257436 440.04604 327.01792 439.195022 327.778404 438.425497 329.13639 437.73744 331.09192L426.27592 362.5432 424.75496 362.5432 412.42432 333.64496C411.120633 330.566811 410.342054 328.104329 410.08856 326.25744L407.04664 326.36608 407.04664 323.976 419.64888 323.976 419.64888 325.76856 419.59456 325.82288C418.399514 325.895307 417.521349 326.157851 416.96004 326.61052 416.39873 327.063189 416.11808 327.724076 416.11808 328.5932 416.11808 329.426111 416.371571 330.458181 416.87856 331.68944L418.29088 335.16592C418.653015 336.071258 419.205263 337.447351 419.94764 339.29424 420.690017 341.141129 421.387117 342.825033 422.03896 344.346L423.45128 347.65952C424.863607 350.882523 425.859464 353.272579 426.43888 354.82976L426.54752 354.82976 428.55736 349.01752 429.26352 347.062 434.04368 333.64496 435.29304 330.16848C435.981097 328.21295 436.506185 326.87307 436.86832 326.1488L432.68568 326.36608 432.68568 323.976 443.71264 323.976 443.71264 325.76856zM472.122 333.482L470.32944 333.482C470.32944 330.512492 469.686659 328.484566 468.40108 327.39816 467.1155 326.311755 465.313905 325.804773 462.99624 325.8772L458.32472 325.98584C457.021033 326.022054 456.079496 326.266491 455.50008 326.71916 454.920663 327.171829 454.558534 327.805556 454.41368 328.62036 454.268826 329.435164 454.1964 330.711671 454.1964 332.44992L454.1964 341.14112 464.40856 341.19544 464.02832 336.52392 466.4184 336.52392 466.4184 347.93112 464.62584 347.93112C464.62584 346.59122 464.462881 345.568204 464.13696 344.86204 463.811038 344.155877 463.31311 343.685108 462.64316 343.44972 461.97321 343.214332 461.040726 343.09664 459.84568 343.09664L458.16176 343.15096 454.1964 343.31392 454.1964 355.7532C454.1964 357.636303 454.14208 359.048609 454.03344 359.99016L464.40856 359.8272C466.943506 359.790986 468.8809 359.148206 470.2208 357.89884 471.5607 356.649474 472.23064 354.485749 472.23064 351.4076L474.07752 351.4076 473.7516 362 445.72248 362 445.72248 360.20744C446.989953 360.171226 447.895277 359.881523 448.43848 359.33832 448.981682 358.795117 449.289493 358.152337 449.36192 357.40996 449.434347 356.667583 449.47056 355.372969 449.47056 353.52608L449.47056 330.05984C449.47056 328.538873 449.524879 327.235206 449.63352 326.1488L445.72248 326.36608 445.72248 323.976 471.8504 323.976 472.122 333.482zM515.577999 325.76856C514.491594 325.804774 513.685855 326.012998 513.160759 326.39324 512.635663 326.773482 512.300693 327.289517 512.155839 327.94136 512.010985 328.593203 511.938559 329.462315 511.938559 330.54872L511.938559 332.44992 511.829919 362.86912 509.222559 362.86912 485.647679 331.20056 485.593359 331.20056 485.756319 354.44952C485.756319 356.875825 485.720107 358.668368 485.647679 359.8272L489.558719 359.60992 489.558719 362 479.61816 362 479.61816 360.20744C481.0667 360.20744 482.026344 359.790991 482.497119 358.95808 482.967895 358.125169 483.203279 357.111206 483.203279 355.91616L483.257599 326.1488 479.61816 326.36608 479.61816 323.976 486.082239 323.976 509.222559 354.9384 509.276879 354.9384 509.331199 330.05984C509.331199 328.538873 509.385519 327.235206 509.494159 326.1488L505.583119 326.36608 505.583119 323.976 515.577999 323.976 515.577999 325.76856zM551.429199 335.43752L549.365039 335.43752C549.328826 333.156069 549.102495 331.336367 548.686039 329.97836 548.269584 328.620353 547.563431 327.60639 546.567559 326.93644 545.571687 326.26649 544.150328 325.93152 542.303439 325.93152L537.686239 325.93152 537.631919 355.53592C537.631919 357.455236 537.5776 358.885649 537.468959 359.8272L541.977519 359.60992 541.977519 362 529.212319 362 529.212319 360.20744C530.7695 360.135013 531.77441 359.700457 532.227079 358.90376 532.679748 358.107063 532.906079 356.875822 532.906079 355.21L532.906079 353.52608 532.960399 325.98584 527.365439 326.04016C525.120201 326.04016 523.517777 326.791579 522.558119 328.29444 521.598461 329.797301 521.118639 332.178304 521.118639 335.43752L519.108799 335.43752 519.434719 323.976 551.103279 323.976 551.429199 335.43752zM591.897599 325.76856C590.593912 325.804774 589.670482 326.094477 589.127279 326.63768 588.584076 327.180883 588.276266 327.823663 588.203839 328.56604 588.131412 329.308417 588.095199 330.603031 588.095199 332.44992L587.986559 345.05216C587.950345 350.30312 586.782477 354.585303 584.482919 357.89884 582.183361 361.212377 578.480584 362.86912 573.374479 362.86912 569.535846 362.86912 566.50301 362.190127 564.275879 360.83212 562.048748 359.474113 560.455377 357.391867 559.495719 354.58532 558.536061 351.778773 558.056239 348.075996 558.056239 343.47688L558.056239 332.44992C558.056239 330.132255 558.128665 328.031903 558.273519 326.1488L554.362479 326.31176 554.362479 323.976 566.530159 323.976 566.530159 325.76856C564.936764 325.76856 563.922801 326.185009 563.488239 327.01792 563.053677 327.850831 562.836399 328.864794 562.836399 330.05984L562.836399 343.74848C562.836399 346.899056 563.11705 349.624082 563.678359 351.92364 564.239669 354.223198 565.344164 356.106273 566.991879 357.57292 568.639594 359.039567 571.00249 359.77288 574.080639 359.77288 577.846844 359.77288 580.644296 358.478266 582.473079 355.889 584.301861 353.299734 585.252452 349.778022 585.324879 345.32376L585.487839 330.05984C585.487839 328.538873 585.542158 327.235206 585.650799 326.1488L581.794079 326.36608 581.794079 323.976 591.897599 323.976 591.897599 325.76856zM620.171159 326.50188C622.543144 328.149595 623.729119 330.530598 623.729119 333.64496 623.765332 336.143693 623.022966 338.388897 621.501999 340.38064 619.981031 342.372383 617.337484 343.748476 613.571279 344.50896 614.186908 344.979736 614.74821 345.541037 615.255199 346.19288 615.762188 346.844723 616.450234 347.858687 617.319359 349.2348L621.013119 355.04704C621.809816 356.314513 622.470703 357.28321 622.995799 357.95316 623.520895 358.62311 624.154622 359.166305 624.896999 359.58276 625.639376 359.999215 626.553753 360.20744 627.640159 360.20744L627.640159 362 620.795839 362C619.818074 361.167089 618.994229 360.307031 618.324279 359.4198 617.654329 358.532569 616.866697 357.382807 615.961359 355.97048L612.321919 350.15824 611.615759 349.01752C611.036343 348.039755 610.529361 347.24307 610.094799 346.62744 609.660237 346.01181 609.189468 345.468616 608.682479 344.99784 608.356557 345.034054 607.849576 345.05216 607.161519 345.05216 606.183754 345.05216 605.459494 345.034054 604.988719 344.99784L604.988719 355.53592C604.988719 357.455236 604.934399 358.885649 604.825759 359.8272L608.736799 359.60992 608.736799 362 596.514799 362 596.514799 360.20744C597.782272 360.171226 598.687596 359.881523 599.230799 359.33832 599.774002 358.795117 600.081812 358.152337 600.154239 357.40996 600.226666 356.667583 600.262879 355.372969 600.262879 353.52608L600.262879 330.05984C600.262879 328.538873 600.317198 327.235206 600.425839 326.1488L596.514799 326.36608 596.514799 323.976C600.281004 323.903573 603.123723 323.86736 605.043039 323.86736 606.781287 323.86736 608.084954 323.885467 608.954079 323.92168 614.060184 323.994107 617.799174 324.854165 620.171159 326.50188zM606.020799 326.74632C605.477596 327.253309 605.169786 327.86893 605.097359 328.5932 605.024932 329.31747 604.988719 330.603031 604.988719 332.44992L604.988719 342.87936C606.075124 342.951787 606.87181 342.988 607.378799 342.988 614.766356 342.988 618.460079 340.072856 618.460079 334.24248 618.460079 331.490253 617.663393 329.426114 616.069999 328.05 614.476604 326.673887 612.032229 325.98584 608.736799 325.98584 607.469326 325.98584 606.564002 326.239331 606.020799 326.74632zM657.027279 333.482L655.234719 333.482C655.234719 330.512492 654.591938 328.484566 653.306359 327.39816 652.020779 326.311755 650.219183 325.804773 647.901519 325.8772L643.229999 325.98584C641.926312 326.022054 640.984775 326.266491 640.405359 326.71916 639.825942 327.171829 639.463813 327.805556 639.318959 328.62036 639.174105 329.435164 639.101679 330.711671 639.101679 332.44992L639.101679 341.14112 649.313839 341.19544 648.933599 336.52392 651.323679 336.52392 651.323679 347.93112 649.531119 347.93112C649.531119 346.59122 649.36816 345.568204 649.042239 344.86204 648.716317 344.155877 648.218389 343.685108 647.548439 343.44972 646.878489 343.214332 645.946005 343.09664 644.750959 343.09664L643.067039 343.15096 639.101679 343.31392 639.101679 355.7532C639.101679 357.636303 639.047359 359.048609 638.938719 359.99016L649.313839 359.8272C651.848785 359.790986 653.786178 359.148206 655.126079 357.89884 656.465979 356.649474 657.135919 354.485749 657.135919 351.4076L658.982799 351.4076 658.656879 362 630.627759 362 630.627759 360.20744C631.895232 360.171226 632.800556 359.881523 633.343759 359.33832 633.886961 358.795117 634.194772 358.152337 634.267199 357.40996 634.339626 356.667583 634.375839 355.372969 634.375839 353.52608L634.375839 330.05984C634.375839 328.538873 634.430158 327.235206 634.538799 326.1488L630.627759 326.36608 630.627759 323.976 656.755679 323.976 657.027279 333.482zM282.327921 392.692C285.098254 394.575103 286.483401 397.345395 286.483401 401.00296 286.483401 403.103344 285.931153 405.113164 284.826641 407.03248 283.722128 408.951796 281.820947 410.545167 279.123041 411.81264 276.425134 413.080113 272.849103 413.71384 268.394841 413.71384 267.56193 413.71384 266.910096 413.695734 266.439321 413.65952L266.439321 421.53592C266.439321 423.455236 266.385001 424.885649 266.276361 425.8272L271.273801 425.5556 271.273801 428 257.965401 428 257.965401 426.20744C259.232874 426.171226 260.138198 425.881523 260.681401 425.33832 261.224603 424.795117 261.532414 424.152337 261.604841 423.40996 261.677268 422.667583 261.713481 421.372969 261.713481 419.52608L261.713481 396.05984C261.713481 394.538873 261.7678 393.235206 261.876441 392.1488L257.965401 392.36608 257.965401 389.976C263.035293 389.903573 267.073039 389.86736 270.078761 389.86736 275.474574 389.86736 279.557587 390.808897 282.327921 392.692zM267.389921 392.74632C266.901038 393.253309 266.620388 393.859877 266.547961 394.56604 266.475534 395.272204 266.439321 396.566817 266.439321 398.44992L266.439321 411.4324C267.344659 411.541041 268.52158 411.59536 269.970121 411.59536 272.034291 411.59536 273.926419 411.187964 275.646561 410.37316 277.366703 409.558356 278.724689 408.381434 279.720561 406.84236 280.716432 405.303286 281.214361 403.50169 281.214361 401.43752 281.214361 398.178304 280.218504 395.788248 278.226761 394.26728 276.235017 392.746313 273.482832 391.98584 269.970121 391.98584 268.738861 391.98584 267.878803 392.239331 267.389921 392.74632zM315.59892 419.852C315.997269 420.829765 316.341292 421.888994 316.631 423.02972 316.920709 424.170446 317.047454 425.10293 317.01124 425.8272L320.705 425.60992 320.705 428 308.26572 428 308.26572 426.20744C310.402318 426.171226 311.4706 425.302115 311.4706 423.60008 311.4706 422.912023 311.289536 422.061018 310.9274 421.04704L309.0262 415.94096 294.903001 416.26688C294.359798 417.751634 293.726071 419.689028 293.001801 422.07912 292.639665 423.274166 292.187003 424.523514 291.643801 425.8272L295.880761 425.60992 295.880761 428 285.722921 428 285.722921 426.20744C286.628258 426.20744 287.352518 425.999215 287.895721 425.58276 288.438923 425.166305 288.882532 424.62311 289.226561 423.95316 289.570589 423.28321 289.977985 422.2783 290.448761 420.9384L290.991961 419.41744 302.181881 388.94392 303.48556 388.94392 315.59892 419.852zM301.855961 396.87464L299.574521 403.0128 296.641241 411.26944 295.717801 413.93112 308.26572 413.93112 304.409 403.556 301.964601 396.87464 301.855961 396.87464zM346.69712 392.50188C349.069105 394.149595 350.25508 396.530598 350.25508 399.64496 350.291294 402.143693 349.548928 404.388897 348.02796 406.38064 346.506993 408.372383 343.863446 409.748476 340.09724 410.50896 340.71287 410.979736 341.274171 411.541037 341.78116 412.19288 342.288149 412.844723 342.976196 413.858687 343.84532 415.2348L347.53908 421.04704C348.335778 422.314513 348.996664 423.28321 349.52176 423.95316 350.046856 424.62311 350.680583 425.166305 351.42296 425.58276 352.165337 425.999215 353.079715 426.20744 354.16612 426.20744L354.16612 428 347.3218 428C346.344035 427.167089 345.52019 426.307031 344.85024 425.4198 344.18029 424.532569 343.392658 423.382807 342.48732 421.97048L338.84788 416.15824 338.14172 415.01752C337.562304 414.039755 337.055322 413.24307 336.62076 412.62744 336.186198 412.01181 335.71543 411.468616 335.20844 410.99784 334.882519 411.034054 334.375537 411.05216 333.68748 411.05216 332.709715 411.05216 331.985456 411.034054 331.51468 410.99784L331.51468 421.53592C331.51468 423.455236 331.460361 424.885649 331.35172 425.8272L335.26276 425.60992 335.26276 428 323.04076 428 323.04076 426.20744C324.308233 426.171226 325.213558 425.881523 325.75676 425.33832 326.299963 424.795117 326.607773 424.152337 326.6802 423.40996 326.752627 422.667583 326.78884 421.372969 326.78884 419.52608L326.78884 396.05984C326.78884 394.538873 326.84316 393.235206 326.9518 392.1488L323.04076 392.36608 323.04076 389.976C326.806966 389.903573 329.649684 389.86736 331.569 389.86736 333.307249 389.86736 334.610916 389.885467 335.48004 389.92168 340.586146 389.994107 344.325135 390.854165 346.69712 392.50188zM332.54676 392.74632C332.003558 393.253309 331.695747 393.86893 331.62332 394.5932 331.550893 395.31747 331.51468 396.603031 331.51468 398.44992L331.51468 408.87936C332.601086 408.951787 333.397771 408.988 333.90476 408.988 341.292317 408.988 344.98604 406.072856 344.98604 400.24248 344.98604 397.490253 344.189355 395.426114 342.59596 394.05 341.002566 392.673887 338.55819 391.98584 335.26276 391.98584 333.995287 391.98584 333.089963 392.239331 332.54676 392.74632zM387.68156 401.43752L385.6174 401.43752C385.581187 399.156069 385.354855 397.336367 384.9384 395.97836 384.521945 394.620353 383.815792 393.60639 382.81992 392.93644 381.824048 392.26649 380.402689 391.93152 378.5558 391.93152L373.9386 391.93152 373.88428 421.53592C373.88428 423.455236 373.829961 424.885649 373.72132 425.8272L378.22988 425.60992 378.22988 428 365.46468 428 365.46468 426.20744C367.021861 426.135013 368.026771 425.700457 368.47944 424.90376 368.932109 424.107063 369.15844 422.875822 369.15844 421.21L369.15844 419.52608 369.21276 391.98584 363.6178 392.04016C361.372562 392.04016 359.770138 392.791579 358.81048 394.29444 357.850822 395.797301 357.371 398.178304 357.371 401.43752L355.36116 401.43752 355.68708 389.976 387.35564 389.976 387.68156 401.43752zM427.987 391.76856C426.900594 391.804774 426.094856 392.012998 425.56976 392.39324 425.044664 392.773482 424.709694 393.289517 424.56484 393.94136 424.419986 394.593203 424.34756 395.462315 424.34756 396.54872L424.34756 398.44992 424.23892 428.86912 421.63156 428.86912 398.05668 397.20056 398.00236 397.20056 398.16532 420.44952C398.16532 422.875825 398.129107 424.668368 398.05668 425.8272L401.96772 425.60992 401.96772 428 392.02716 428 392.02716 426.20744C393.475701 426.20744 394.435344 425.790991 394.90612 424.95808 395.376896 424.125169 395.61228 423.111206 395.61228 421.91616L395.6666 392.1488 392.02716 392.36608 392.02716 389.976 398.49124 389.976 421.63156 420.9384 421.68588 420.9384 421.7402 396.05984C421.7402 394.538873 421.794519 393.235206 421.90316 392.1488L417.99212 392.36608 417.99212 389.976 427.987 389.976 427.987 391.76856zM459.70988 399.482L457.91732 399.482C457.91732 396.512492 457.274539 394.484566 455.98896 393.39816 454.70338 392.311755 452.901785 391.804773 450.58412 391.8772L445.9126 391.98584C444.608913 392.022054 443.667376 392.266491 443.08796 392.71916 442.508543 393.171829 442.146414 393.805556 442.00156 394.62036 441.856706 395.435164 441.78428 396.711671 441.78428 398.44992L441.78428 407.14112 451.99644 407.19544 451.6162 402.52392 454.00628 402.52392 454.00628 413.93112 452.21372 413.93112C452.21372 412.59122 452.050761 411.568204 451.72484 410.86204 451.398918 410.155877 450.90099 409.685108 450.23104 409.44972 449.56109 409.214332 448.628606 409.09664 447.43356 409.09664L445.74964 409.15096 441.78428 409.31392 441.78428 421.7532C441.78428 423.636303 441.72996 425.048609 441.62132 425.99016L451.99644 425.8272C454.531386 425.790986 456.46878 425.148206 457.80868 423.89884 459.14858 422.649474 459.81852 420.485749 459.81852 417.4076L461.6654 417.4076 461.33948 428 433.31036 428 433.31036 426.20744C434.577833 426.171226 435.483157 425.881523 436.02636 425.33832 436.569562 424.795117 436.877373 424.152337 436.9498 423.40996 437.022227 422.667583 437.05844 421.372969 437.05844 419.52608L437.05844 396.05984C437.05844 394.538873 437.112759 393.235206 437.2214 392.1488L433.31036 392.36608 433.31036 389.976 459.43828 389.976 459.70988 399.482zM490.753759 392.50188C493.125745 394.149595 494.311719 396.530598 494.311719 399.64496 494.347933 402.143693 493.605567 404.388897 492.084599 406.38064 490.563632 408.372383 487.920085 409.748476 484.153879 410.50896 484.769509 410.979736 485.33081 411.541037 485.837799 412.19288 486.344789 412.844723 487.032835 413.858687 487.901959 415.2348L491.595719 421.04704C492.392417 422.314513 493.053303 423.28321 493.578399 423.95316 494.103495 424.62311 494.737222 425.166305 495.479599 425.58276 496.221976 425.999215 497.136354 426.20744 498.222759 426.20744L498.222759 428 491.378439 428C490.400675 427.167089 489.576829 426.307031 488.906879 425.4198 488.236929 424.532569 487.449297 423.382807 486.543959 421.97048L482.904519 416.15824 482.198359 415.01752C481.618943 414.039755 481.111962 413.24307 480.6774 412.62744 480.242837 412.01181 479.772069 411.468616 479.26508 410.99784 478.939158 411.034054 478.432176 411.05216 477.74412 411.05216 476.766355 411.05216 476.042095 411.034054 475.57132 410.99784L475.57132 421.53592C475.57132 423.455236 475.517 424.885649 475.40836 425.8272L479.3194 425.60992 479.3194 428 467.0974 428 467.0974 426.20744C468.364873 426.171226 469.270197 425.881523 469.8134 425.33832 470.356602 424.795117 470.664413 424.152337 470.73684 423.40996 470.809267 422.667583 470.84548 421.372969 470.84548 419.52608L470.84548 396.05984C470.84548 394.538873 470.899799 393.235206 471.00844 392.1488L467.0974 392.36608 467.0974 389.976C470.863605 389.903573 473.706323 389.86736 475.62564 389.86736 477.363888 389.86736 478.667555 389.885467 479.53668 389.92168 484.642785 389.994107 488.381774 390.854165 490.753759 392.50188zM476.6034 392.74632C476.060197 393.253309 475.752387 393.86893 475.67996 394.5932 475.607533 395.31747 475.57132 396.603031 475.57132 398.44992L475.57132 408.87936C476.657725 408.951787 477.45441 408.988 477.9614 408.988 485.348956 408.988 489.042679 406.072856 489.042679 400.24248 489.042679 397.490253 488.245994 395.426114 486.652599 394.05 485.059205 392.673887 482.614829 391.98584 479.3194 391.98584 478.051927 391.98584 477.146602 392.239331 476.6034 392.74632zM517.424879 389.73156C519.072594 390.148016 520.584486 390.863222 521.960599 391.8772L521.743319 389.54144 524.513639 389.54144 524.513639 401.49184 522.558119 401.49184C522.377052 398.630973 521.462674 396.213757 519.814959 394.24012 518.167244 392.266484 515.858667 391.27968 512.889159 391.27968 510.716348 391.27968 509.014339 391.886247 507.783079 393.0994 506.55182 394.312553 505.936199 395.824444 505.936199 397.63512 505.936199 399.083661 506.352649 400.333008 507.185559 401.3832 508.01847 402.433392 509.032433 403.302503 510.227479 403.99056 511.422525 404.678617 513.106428 405.529622 515.279239 406.5436 517.741758 407.666219 519.724418 408.680182 521.227279 409.58552 522.73014 410.490858 524.006647 411.676833 525.056839 413.14348 526.107031 414.610127 526.632119 416.411723 526.632119 418.54832 526.632119 420.576277 526.134191 422.368819 525.138319 423.926 524.142448 425.483181 522.684876 426.696316 520.765559 427.56544 518.846243 428.434564 516.564826 428.86912 513.921239 428.86912 512.219204 428.86912 510.508141 428.633736 508.787999 428.16296 507.067857 427.692184 505.555966 427.004138 504.252279 426.0988L504.523879 428.43456 501.699239 428.43456 501.373319 416.8644 503.491799 416.8644C503.672867 419.978762 504.74115 422.377872 506.696679 424.0618 508.652209 425.745728 511.132798 426.58768 514.138519 426.58768 516.347544 426.58768 518.203458 425.981113 519.706319 424.76796 521.20918 423.554807 521.960599 421.898064 521.960599 419.79768 521.960599 418.240499 521.535097 416.909672 520.684079 415.80516 519.833062 414.700648 518.782886 413.777217 517.533519 413.03484 516.284153 412.292463 514.591197 411.432405 512.454599 410.45464 510.028294 409.295808 508.099953 408.281844 506.669519 407.41272 505.239086 406.543596 504.016898 405.393834 503.002919 403.9634 501.988941 402.532966 501.481959 400.767584 501.481959 398.6672 501.481959 397.21866 501.816929 395.770141 502.486879 394.3216 503.156829 392.87306 504.315644 391.641819 505.963359 390.62784 507.611074 389.613862 509.792906 389.10688 512.508919 389.10688 514.138527 389.10688 515.777164 389.315105 517.424879 389.73156zM679.390723 116.035C720.429723 114.647 769.264723 106.883 777.760723 61.909 755.348723 87.238 717.093723 92.684 673.380723 93.835 610.115723 95.502 548.456723 83.984 488.577723 112.08L488.570723 112.075C486.918723 111.325 485.230723 110.618 483.515723 109.952 542.197723 81.12 608.631723 90.569 673.081723 88.812 720.735723 87.512 794.933723 83.39 781.900723 0 741.064723 148.567 409.716723-53.765 391.705723 236.988 364.894723 180.22 297.756723 149.316 218.865723 147.064 218.865723 147.064 238.344723 132.443 289.987723 133.017 289.987723 133.017 304.557723 112.843 348.213723 115.979 253.780723 7.336 35.6457225 124.185 1.51172254 0-11.5212775 83.39 62.6757225 87.512 110.330723 88.812 174.780723 90.569 241.213723 81.12 299.895723 109.952 298.181723 110.618 296.493723 111.325 294.840723 112.075L294.833723 112.08C234.954723 83.984 173.296723 95.502 110.031723 93.835 66.3177225 92.684 28.0637225 87.238 5.65172254 61.909 14.1467225 106.883 62.9827225 114.647 104.021723 116.035 129.912723 116.91 155.620723 115.82 181.478723 116.187 202.502723 116.484 222.002723 117.793 241.093723 121.732 238.062723 122.48 235.173723 123.333 232.381723 124.298L232.381723 124.299C216.509723 121.618 200.233723 120.597 182.920723 120.303 156.470723 119.854 130.232723 120.765 103.715723 119.661 68.0527225 118.176 36.6277225 113.02 15.3867225 95.263 31.1027225 146.344 99.6817225 142.699 148.209723 141.922 164.764723 141.657 182.431723 141.972 199.362723 142.397 197.553723 143.68 195.701723 145.02 193.795723 146.417L193.795723 146.418C179.047723 146.129 164.023723 145.906 149.209723 145.91 111.069723 145.919 74.4557225 146.31 45.2427225 138.258 130.504723 215.108 284.695723 113.753 391.705723 270.799 498.715723 113.753 652.906723 215.108 738.168723 138.258 708.956723 146.31 672.342723 145.919 634.201723 145.91 619.388723 145.906 604.364723 146.129 589.615723 146.418L589.615723 146.417C587.709723 145.02 585.857723 143.68 584.049723 142.397 600.980723 141.972 618.646723 141.657 635.201723 141.922 683.729723 142.699 752.309723 146.344 768.025723 95.263 746.784723 113.02 715.358723 118.176 679.695723 119.661 653.178723 120.765 626.941723 119.854 600.491723 120.303 583.178723 120.597 566.902723 121.618 551.029723 124.299L551.029723 124.298C548.237723 123.333 545.350723 122.48 542.317723 121.732 561.408723 117.793 580.909723 116.484 601.933723 116.187 627.790723 115.82 653.499723 116.91 679.390723 116.035"/>
    <polygon points="123 297.094 660.87 297.094 660.87 291 123 291"/>
  </g>
</svg>
